<?xml version="1.0" encoding="UTF-8" standalone="no"?>
<!DOCTYPE svg PUBLIC "-//W3C//DTD SVG 1.1//EN"
 "http://www.w3.org/Graphics/SVG/1.1/DTD/svg11.dtd">
<!-- Generated by graphviz version 2.40.1 (20161225.0304)
 -->
<!-- Title: TextGraph Pages: 1 -->
<svg width="1265pt" height="405pt"
 viewBox="0.00 0.00 1265.14 405.20" xmlns="http://www.w3.org/2000/svg" xmlns:xlink="http://www.w3.org/1999/xlink">
<g id="graph0" class="graph" transform="scale(1 1) rotate(0) translate(4 401.2)">
<title>TextGraph</title>
<polygon fill="#ffffff" stroke="transparent" points="-4,4 -4,-401.2 1261.1448,-401.2 1261.1448,4 -4,4"/>
<text text-anchor="start" x="8" y="-7.4" font-family="Times,serif" font-style="italic" font-size="8.00" fill="#a52a2a">[tagml&gt;\n[text|+A,+B,+C&gt;\n[page|A&gt;\n[p|B&gt;\n[p|C&gt;\n[line&gt;1st. Voice from the Mountains&lt;line]\n[line&gt;Thrice three hundred thousand years&lt;line]\n[line&gt;We had been stained with bitter blood&lt;line]\n&lt;p|C]\n&lt;page|A]\n[page|A&gt;\n[p|C&gt;\n[line&gt;And had ran mute &#39;mid shrieks of slaugter&lt;line]\n[line&gt;Thro&#39; a city and a multitude&lt;line]\n&lt;p|B]\n&lt;p|C]\n&lt;page|A]\n&lt;text|A,B,C]\n&lt;tagml] </text>
<!-- d -->
<g id="node1" class="node">
<title>d</title>
<ellipse fill="#ffffff" stroke="#000000" cx="665.768" cy="-375.2" rx="18" ry="18"/>
<ellipse fill="none" stroke="#000000" cx="665.768" cy="-375.2" rx="22" ry="22"/>
</g>
<!-- m2 -->
<g id="node7" class="node">
<title>m2</title>
<ellipse fill="#ffffff" stroke="#ff0000" cx="665.768" cy="-298.2" rx="33.0624" ry="18"/>
<text text-anchor="start" x="649.8248" y="-294" font-family="Times,serif" font-size="14.00" fill="#000000">tagml</text>
</g>
<!-- d&#45;&gt;m2 -->
<g id="edge36" class="edge">
<title>d&#45;&gt;m2</title>
<path fill="none" stroke="#000000" d="M665.768,-352.9284C665.768,-341.2914 665.768,-327.2332 665.768,-316.2789"/>
</g>
<!-- t8 -->
<g id="node2" class="node">
<title>t8</title>
<polygon fill="#ffffff" stroke="#0000ff" points="214.7322,-53.6 26.8039,-53.6 26.8039,-17.6 214.7322,-17.6 214.7322,-53.6"/>
<text text-anchor="start" x="35.0362" y="-31.4" font-family="Times,serif" font-size="14.00" fill="#000000">1st. Voice from the Mountains</text>
</g>
<!-- t10 -->
<g id="node3" class="node">
<title>t10</title>
<polygon fill="#ffffff" stroke="#0000ff" points="470.2414,-53.6 249.2947,-53.6 249.2947,-17.6 470.2414,-17.6 470.2414,-53.6"/>
<text text-anchor="start" x="257.5316" y="-31.4" font-family="Times,serif" font-size="14.00" fill="#000000">Thrice three hundred thousand years</text>
</g>
<!-- t8&#45;&gt;t10 -->
<g id="edge1" class="edge">
<title>t8&#45;&gt;t10</title>
<path fill="none" stroke="#ffffff" d="M214.5942,-35.6C226.2195,-35.6 237.8447,-35.6 249.47,-35.6"/>
</g>
<!-- t12 -->
<g id="node4" class="node">
<title>t12</title>
<polygon fill="#ffffff" stroke="#0000ff" points="734.3215,-53.6 505.2146,-53.6 505.2146,-17.6 734.3215,-17.6 734.3215,-53.6"/>
<text text-anchor="start" x="513.2413" y="-31.4" font-family="Times,serif" font-size="14.00" fill="#000000">We had been stained with bitter blood</text>
</g>
<!-- t10&#45;&gt;t12 -->
<g id="edge2" class="edge">
<title>t10&#45;&gt;t12</title>
<path fill="none" stroke="#ffffff" d="M470.2173,-35.6C481.8036,-35.6 493.3899,-35.6 504.9761,-35.6"/>
</g>
<!-- t16 -->
<g id="node5" class="node">
<title>t16</title>
<polygon fill="#ffffff" stroke="#0000ff" points="1022.0334,-53.6 769.5027,-53.6 769.5027,-17.6 1022.0334,-17.6 1022.0334,-53.6"/>
<text text-anchor="start" x="777.3854" y="-31.4" font-family="Times,serif" font-size="14.00" fill="#000000">And had ran mute &#39;mid shrieks of slaugter</text>
</g>
<!-- t12&#45;&gt;t16 -->
<g id="edge3" class="edge">
<title>t12&#45;&gt;t16</title>
<path fill="none" stroke="#ffffff" d="M734.3188,-35.6C745.9861,-35.6 757.6533,-35.6 769.3205,-35.6"/>
</g>
<!-- t18 -->
<g id="node6" class="node">
<title>t18</title>
<polygon fill="#ffffff" stroke="#0000ff" points="1229.9493,-53.6 1057.5868,-53.6 1057.5868,-17.6 1229.9493,-17.6 1229.9493,-53.6"/>
<text text-anchor="start" x="1065.4275" y="-31.4" font-family="Times,serif" font-size="14.00" fill="#000000">Thro&#39; a city and a multitude</text>
</g>
<!-- t16&#45;&gt;t18 -->
<g id="edge4" class="edge">
<title>t16&#45;&gt;t18</title>
<path fill="none" stroke="#ffffff" d="M1022.1899,-35.6C1033.9045,-35.6 1045.619,-35.6 1057.3336,-35.6"/>
</g>
<!-- m3 -->
<g id="node8" class="node">
<title>m3</title>
<ellipse fill="#ffffff" stroke="#ff0000" cx="605.768" cy="-225.2" rx="52.2597" ry="18"/>
<text text-anchor="start" x="575.9809" y="-221" font-family="Times,serif" font-size="14.00" fill="#000000">text|A,B,C</text>
</g>
<!-- m2&#45;&gt;m3 -->
<g id="edge5" class="edge">
<title>m2&#45;&gt;m3</title>
<path fill="none" stroke="#a52a2a" d="M652.1531,-281.6352C642.6104,-270.0248 629.8769,-254.5325 620.1658,-242.7172"/>
</g>
<!-- m7 -->
<g id="node12" class="node">
<title>m7</title>
<ellipse fill="#ffffff" stroke="#ff0000" cx="176.768" cy="-171.2" rx="27" ry="18"/>
<text text-anchor="start" x="166.2701" y="-167" font-family="Times,serif" font-size="14.00" fill="#000000">line</text>
</g>
<!-- m2&#45;&gt;m7 -->
<g id="edge6" class="edge">
<title>m2&#45;&gt;m7</title>
<path fill="none" stroke="#a52a2a" d="M635.915,-290.4468C546.9569,-267.3431 284.7241,-199.2377 202.0411,-177.7637"/>
</g>
<!-- m9 -->
<g id="node13" class="node">
<title>m9</title>
<ellipse fill="#ffffff" stroke="#ff0000" cx="377.768" cy="-171.2" rx="27" ry="18"/>
<text text-anchor="start" x="367.2701" y="-167" font-family="Times,serif" font-size="14.00" fill="#000000">line</text>
</g>
<!-- m2&#45;&gt;m9 -->
<g id="edge7" class="edge">
<title>m2&#45;&gt;m9</title>
<path fill="none" stroke="#a52a2a" d="M639.9565,-286.8178C584.1778,-262.221 453.1812,-204.4551 400.3988,-181.1795"/>
</g>
<!-- m11 -->
<g id="node14" class="node">
<title>m11</title>
<ellipse fill="#ffffff" stroke="#ff0000" cx="683.768" cy="-171.2" rx="27" ry="18"/>
<text text-anchor="start" x="673.2701" y="-167" font-family="Times,serif" font-size="14.00" fill="#000000">line</text>
</g>
<!-- m2&#45;&gt;m11 -->
<g id="edge8" class="edge">
<title>m2&#45;&gt;m11</title>
<path fill="none" stroke="#a52a2a" d="M668.347,-280.004C671.7688,-255.8613 677.7745,-213.4879 681.1939,-189.3622"/>
</g>
<!-- m15 -->
<g id="node17" class="node">
<title>m15</title>
<ellipse fill="#ffffff" stroke="#ff0000" cx="821.768" cy="-225.2" rx="27" ry="18"/>
<text text-anchor="start" x="811.2701" y="-221" font-family="Times,serif" font-size="14.00" fill="#000000">line</text>
</g>
<!-- m2&#45;&gt;m15 -->
<g id="edge9" class="edge">
<title>m2&#45;&gt;m15</title>
<path fill="none" stroke="#a52a2a" d="M690.8321,-286.4713C720.8047,-272.4457 770.5225,-249.1803 799.2977,-235.715"/>
</g>
<!-- m17 -->
<g id="node18" class="node">
<title>m17</title>
<ellipse fill="#ffffff" stroke="#ff0000" cx="997.768" cy="-225.2" rx="27" ry="18"/>
<text text-anchor="start" x="987.2701" y="-221" font-family="Times,serif" font-size="14.00" fill="#000000">line</text>
</g>
<!-- m2&#45;&gt;m17 -->
<g id="edge10" class="edge">
<title>m2&#45;&gt;m17</title>
<path fill="none" stroke="#a52a2a" d="M696.4067,-291.4632C761.2593,-277.2034 911.3999,-244.1906 971.8549,-230.8978"/>
</g>
<!-- m4 -->
<g id="node9" class="node">
<title>m4</title>
<ellipse fill="#ffffff" stroke="#ff0000" cx="533.768" cy="-117.2" rx="38.3381" ry="18"/>
<text text-anchor="start" x="514.1008" y="-113" font-family="Times,serif" font-size="14.00" fill="#000000">page|A</text>
</g>
<!-- m3&#45;&gt;m4 -->
<g id="edge11" class="edge">
<title>m3&#45;&gt;m4</title>
<path fill="none" stroke="#00ffff" d="M593.8787,-207.366C580.4584,-187.2355 558.7647,-154.695 545.4362,-134.7022"/>
<text text-anchor="start" x="579.768" y="-168.8" font-family="Times,serif" font-size="8.00" fill="#000000">A</text>
</g>
<!-- m5 -->
<g id="node10" class="node">
<title>m5</title>
<ellipse fill="#ffffff" stroke="#ff0000" cx="617.768" cy="-117.2" rx="27" ry="18"/>
<text text-anchor="start" x="608.2004" y="-113" font-family="Times,serif" font-size="14.00" fill="#000000">p|B</text>
</g>
<!-- m3&#45;&gt;m5 -->
<g id="edge12" class="edge">
<title>m3&#45;&gt;m5</title>
<path fill="none" stroke="#000000" d="M607.8037,-206.8793C610.0237,-186.899 613.5544,-155.1231 615.7625,-135.2502"/>
<text text-anchor="start" x="612.768" y="-168.8" font-family="Times,serif" font-size="8.00" fill="#000000">B</text>
</g>
<!-- m6 -->
<g id="node11" class="node">
<title>m6</title>
<ellipse fill="#ffffff" stroke="#ff0000" cx="433.768" cy="-117.2" rx="27" ry="18"/>
<text text-anchor="start" x="424.2004" y="-113" font-family="Times,serif" font-size="14.00" fill="#000000">p|C</text>
</g>
<!-- m3&#45;&gt;m6 -->
<g id="edge13" class="edge">
<title>m3&#45;&gt;m6</title>
<path fill="none" stroke="#c0c0c0" d="M580.3889,-209.2642C545.907,-187.6129 484.9708,-149.3506 453.622,-129.6664"/>
<text text-anchor="start" x="544.768" y="-168.8" font-family="Times,serif" font-size="8.00" fill="#000000">C</text>
</g>
<!-- m13 -->
<g id="node15" class="node">
<title>m13</title>
<ellipse fill="#ffffff" stroke="#ff0000" cx="769.768" cy="-117.2" rx="38.3381" ry="18"/>
<text text-anchor="start" x="750.1008" y="-113" font-family="Times,serif" font-size="14.00" fill="#000000">page|A</text>
</g>
<!-- m3&#45;&gt;m13 -->
<g id="edge14" class="edge">
<title>m3&#45;&gt;m13</title>
<path fill="none" stroke="#00ffff" d="M653.086,-217.5549C674.9414,-212.2836 700.2995,-203.5398 719.768,-189.2 739.0058,-175.0302 753.453,-151.1604 761.7499,-134.8176"/>
<text text-anchor="start" x="750.768" y="-168.8" font-family="Times,serif" font-size="8.00" fill="#000000">A</text>
</g>
<!-- m14 -->
<g id="node16" class="node">
<title>m14</title>
<ellipse fill="#ffffff" stroke="#ff0000" cx="852.768" cy="-117.2" rx="27" ry="18"/>
<text text-anchor="start" x="843.2004" y="-113" font-family="Times,serif" font-size="14.00" fill="#000000">p|C</text>
</g>
<!-- m3&#45;&gt;m14 -->
<g id="edge15" class="edge">
<title>m3&#45;&gt;m14</title>
<path fill="none" stroke="#c0c0c0" d="M655.0692,-219.3475C686.4699,-214.2876 727.3725,-205.1728 760.768,-189.2 791.141,-174.6729 820.8074,-148.7117 837.9126,-132.2533"/>
<text text-anchor="start" x="812.768" y="-168.8" font-family="Times,serif" font-size="8.00" fill="#000000">C</text>
</g>
<!-- m4&#45;&gt;t8 -->
<g id="edge16" class="edge">
<title>m4&#45;&gt;t8</title>
<path fill="none" stroke="#00ffff" d="M505.574,-104.6714C480.6243,-94.1316 442.9697,-79.5456 408.768,-71.6 335.622,-54.607 315.2495,-63.1719 240.768,-53.6 232.3058,-52.5125 223.5176,-51.3186 214.7185,-50.0791"/>
<text text-anchor="start" x="439.768" y="-74" font-family="Times,serif" font-size="8.00" fill="#000000">A</text>
</g>
<!-- m4&#45;&gt;t10 -->
<g id="edge17" class="edge">
<title>m4&#45;&gt;t10</title>
<path fill="none" stroke="#00ffff" d="M528.7792,-99.225C525.2416,-89.6823 519.5329,-78.5275 510.768,-71.6 502.2579,-64.8738 484.1688,-58.818 463.3665,-53.6761"/>
<text text-anchor="start" x="518.768" y="-74" font-family="Times,serif" font-size="8.00" fill="#000000">A</text>
</g>
<!-- m4&#45;&gt;t12 -->
<g id="edge18" class="edge">
<title>m4&#45;&gt;t12</title>
<path fill="none" stroke="#00ffff" d="M550.7589,-101.0785C565.1505,-87.4231 585.7685,-67.8601 600.7169,-53.6765"/>
<text text-anchor="start" x="578.768" y="-74" font-family="Times,serif" font-size="8.00" fill="#000000">A</text>
</g>
<!-- m5&#45;&gt;t8 -->
<g id="edge19" class="edge">
<title>m5&#45;&gt;t8</title>
<path fill="none" stroke="#000000" d="M596.6607,-105.7063C591.5676,-103.2791 586.064,-100.9317 580.768,-99.2 538.122,-85.2557 525.0485,-91.7263 481.4328,-81.2 467.1375,-77.7499 464.2088,-74.3793 449.768,-71.6 358.2156,-53.9793 333.359,-64.5205 240.768,-53.6 232.2949,-52.6006 223.4993,-51.467 214.6954,-50.2665"/>
<text text-anchor="start" x="480.768" y="-74" font-family="Times,serif" font-size="8.00" fill="#000000">B</text>
</g>
<!-- m5&#45;&gt;t10 -->
<g id="edge20" class="edge">
<title>m5&#45;&gt;t10</title>
<path fill="none" stroke="#000000" d="M597.5989,-104.9124C579.9945,-94.6708 553.4683,-80.3842 528.768,-71.6 508.7003,-64.4633 486.7645,-58.5161 465.5404,-53.6476"/>
<text text-anchor="start" x="550.768" y="-74" font-family="Times,serif" font-size="8.00" fill="#000000">B</text>
</g>
<!-- m5&#45;&gt;t12 -->
<g id="edge21" class="edge">
<title>m5&#45;&gt;t12</title>
<path fill="none" stroke="#000000" d="M618.2119,-99.0903C618.5433,-85.5678 618.9943,-67.1694 619.3254,-53.6591"/>
<text text-anchor="start" x="618.768" y="-74" font-family="Times,serif" font-size="8.00" fill="#000000">B</text>
</g>
<!-- m5&#45;&gt;t16 -->
<g id="edge22" class="edge">
<title>m5&#45;&gt;t16</title>
<path fill="none" stroke="#000000" d="M642.5044,-109.8045C672.8578,-100.7424 725.9024,-84.9468 771.4328,-71.6 791.4884,-65.7209 813.3813,-59.3623 833.1297,-53.6484"/>
<text text-anchor="start" x="770.768" y="-74" font-family="Times,serif" font-size="8.00" fill="#000000">B</text>
</g>
<!-- m5&#45;&gt;t18 -->
<g id="edge23" class="edge">
<title>m5&#45;&gt;t18</title>
<path fill="none" stroke="#000000" d="M643.9847,-112.4578C678.6474,-106.0533 741.557,-93.963 794.768,-81.2 810.3136,-77.4713 813.7037,-74.4568 829.4328,-71.6 917.826,-55.5456 941.6138,-64.6728 1030.768,-53.6 1039.4422,-52.5227 1048.4727,-51.284 1057.4809,-49.9711"/>
<text text-anchor="start" x="828.768" y="-74" font-family="Times,serif" font-size="8.00" fill="#000000">B</text>
</g>
<!-- m6&#45;&gt;t8 -->
<g id="edge24" class="edge">
<title>m6&#45;&gt;t8</title>
<path fill="none" stroke="#c0c0c0" d="M408.4191,-110.5914C361.3381,-98.3173 258.917,-71.6158 189.883,-53.6185"/>
<text text-anchor="start" x="286.768" y="-74" font-family="Times,serif" font-size="8.00" fill="#000000">C</text>
</g>
<!-- m6&#45;&gt;t10 -->
<g id="edge25" class="edge">
<title>m6&#45;&gt;t10</title>
<path fill="none" stroke="#c0c0c0" d="M419.5001,-101.4667C407.1524,-87.8508 389.29,-68.1539 376.3175,-53.8491"/>
<text text-anchor="start" x="399.768" y="-74" font-family="Times,serif" font-size="8.00" fill="#000000">C</text>
</g>
<!-- m6&#45;&gt;t12 -->
<g id="edge26" class="edge">
<title>m6&#45;&gt;t12</title>
<path fill="none" stroke="#c0c0c0" d="M452.4185,-104.0994C467.123,-94.1997 488.4185,-80.7912 508.4328,-71.6 523.2015,-64.8178 539.6123,-58.7588 555.1967,-53.6334"/>
<text text-anchor="start" x="507.768" y="-74" font-family="Times,serif" font-size="8.00" fill="#000000">C</text>
</g>
<!-- m7&#45;&gt;t8 -->
<g id="edge27" class="edge">
<title>m7&#45;&gt;t8</title>
<path fill="none" stroke="#a52a2a" d="M169.5617,-153.7503C158.9271,-127.9994 139.1246,-80.049 128.3041,-53.848"/>
</g>
<!-- m9&#45;&gt;t10 -->
<g id="edge28" class="edge">
<title>m9&#45;&gt;t10</title>
<path fill="none" stroke="#a52a2a" d="M375.3778,-153.1934C371.935,-127.258 365.6164,-79.6579 362.1682,-53.6811"/>
</g>
<!-- m11&#45;&gt;t12 -->
<g id="edge29" class="edge">
<title>m11&#45;&gt;t12</title>
<path fill="none" stroke="#a52a2a" d="M676.9579,-153.5344C671.1588,-138.8304 662.4145,-117.4306 653.768,-99.2 646.3638,-83.5887 637.0623,-66.3269 630.0606,-53.7305"/>
</g>
<!-- m13&#45;&gt;t16 -->
<g id="edge30" class="edge">
<title>m13&#45;&gt;t16</title>
<path fill="none" stroke="#00ffff" d="M773.6049,-99.1143C776.4325,-89.7753 781.187,-78.8501 788.9928,-71.6 796.9481,-64.2112 806.4725,-58.3341 816.5118,-53.6605"/>
<text text-anchor="start" x="788.768" y="-74" font-family="Times,serif" font-size="8.00" fill="#000000">A</text>
</g>
<!-- m13&#45;&gt;t18 -->
<g id="edge31" class="edge">
<title>m13&#45;&gt;t18</title>
<path fill="none" stroke="#00ffff" d="M793.372,-102.7828C811.6839,-92.3215 838.0648,-78.7925 862.9928,-71.6 935.0482,-50.81 956.4299,-63.5019 1030.768,-53.6 1039.4323,-52.4459 1048.4563,-51.1568 1057.4606,-49.8132"/>
<text text-anchor="start" x="862.768" y="-74" font-family="Times,serif" font-size="8.00" fill="#000000">A</text>
</g>
<!-- m14&#45;&gt;t16 -->
<g id="edge32" class="edge">
<title>m14&#45;&gt;t16</title>
<path fill="none" stroke="#c0c0c0" d="M861.8872,-99.8947C869.0366,-86.3276 878.9566,-67.5027 886.2149,-53.7287"/>
<text text-anchor="start" x="874.768" y="-74" font-family="Times,serif" font-size="8.00" fill="#000000">C</text>
</g>
<!-- m14&#45;&gt;t18 -->
<g id="edge33" class="edge">
<title>m14&#45;&gt;t18</title>
<path fill="none" stroke="#c0c0c0" d="M877.8304,-110.1722C922.2224,-97.7241 1015.9621,-71.4384 1079.4212,-53.6436"/>
<text text-anchor="start" x="1006.768" y="-74" font-family="Times,serif" font-size="8.00" fill="#000000">C</text>
</g>
<!-- m15&#45;&gt;t16 -->
<g id="edge34" class="edge">
<title>m15&#45;&gt;t16</title>
<path fill="none" stroke="#a52a2a" d="M837.205,-210.2893C853.289,-193.6651 877.6624,-165.1535 888.768,-135.2 898.7713,-108.2198 898.7449,-74.3506 897.49,-53.871"/>
</g>
<!-- m17&#45;&gt;t18 -->
<g id="edge35" class="edge">
<title>m17&#45;&gt;t18</title>
<path fill="none" stroke="#a52a2a" d="M1010.2159,-209.0348C1037.3167,-173.8409 1101.4993,-90.4915 1129.8702,-53.6482"/>
</g>
</g>
</svg>