<?xml version="1.0" encoding="UTF-8" standalone="no"?> <!DOCTYPE svg PUBLIC "-//W3C//DTD SVG 1.1//EN" "http://www.w3.org/Graphics/SVG/1.1/DTD/svg11.dtd"> <!-- Generated by graphviz version 2.40.1 (20161225.0304) --> <!-- Title: TextGraph Pages: 1 --> <svg width="1143pt" height="430pt" viewBox="0.00 0.00 1143.07 429.60" xmlns="http://www.w3.org/2000/svg" xmlns:xlink="http://www.w3.org/1999/xlink"> <g id="graph0" class="graph" transform="scale(1 1) rotate(0) translate(4 425.6)"> <title>TextGraph</title> <polygon fill="#ffffff" stroke="transparent" points="-4,4 -4,-425.6 1139.0723,-425.6 1139.0723,4 -4,4"/> <text text-anchor="start" x="60.3433" y="-7.4" font-family="Times,serif" font-style="italic" font-size="8.00" fill="#a52a2a">[tagml&gt;[page&gt;\n[p&gt;\n[line&gt;1st. Voice from the Mountains&lt;line]\n[line&gt;Thrice three hundred thousand years&lt;line]\n[line&gt;We had been stained with bitter blood&lt;line]\n&lt;p]\n&lt;page]\n[page&gt;\n[p&gt;\n[line&gt;And had ran mute &#39;mid shrieks of slaugter&lt;line]\n[line&gt;Thro&#39; a city and a multitude&lt;line]\n&lt;p]\n&lt;page]&lt;tagml] </text> <!-- d --> <g id="node1" class="node"> <title>d</title> <ellipse fill="#ffffff" stroke="#000000" cx="513.7318" cy="-399.6" rx="18" ry="18"/> <ellipse fill="none" stroke="#000000" cx="513.7318" cy="-399.6" rx="22" ry="22"/> </g> <!-- m2 --> <g id="node7" class="node"> <title>m2</title> <ellipse fill="#ffffff" stroke="#ff0000" cx="513.7318" cy="-323.6" rx="33.0624" ry="18"/> <text text-anchor="start" x="497.7886" y="-319.4" font-family="Times,serif" font-size="14.00" fill="#000000">tagml</text> </g> <!-- d&#45;&gt;m2 --> <g id="edge19" class="edge"> <title>d&#45;&gt;m2</title> <path fill="none" stroke="#000000" d="M513.7318,-377.2086C513.7318,-365.9995 513.7318,-352.5974 513.7318,-341.9975"/> </g> <!-- t6 --> <g id="node2" class="node"> <title>t6</title> <polygon fill="#ffffff" stroke="#0000ff" points="187.696,-53.6 -.2324,-53.6 -.2324,-17.6 187.696,-17.6 187.696,-53.6"/> <text text-anchor="start" x="8" y="-31.4" font-family="Times,serif" font-size="14.00" fill="#000000">1st. Voice from the Mountains</text> </g> <!-- t8 --> <g id="node3" class="node"> <title>t8</title> <polygon fill="#ffffff" stroke="#0000ff" points="426.2051,-53.6 205.2585,-53.6 205.2585,-17.6 426.2051,-17.6 426.2051,-53.6"/> <text text-anchor="start" x="213.4954" y="-31.4" font-family="Times,serif" font-size="14.00" fill="#000000">Thrice three hundred thousand years</text> </g> <!-- t6&#45;&gt;t8 --> <g id="edge1" class="edge"> <title>t6&#45;&gt;t8</title> <path fill="none" stroke="#ffffff" d="M187.8216,-35.6C193.6509,-35.6 199.4801,-35.6 205.3094,-35.6"/> </g> <!-- t10 --> <g id="node4" class="node"> <title>t10</title> <polygon fill="#ffffff" stroke="#0000ff" points="673.2852,-53.6 444.1784,-53.6 444.1784,-17.6 673.2852,-17.6 673.2852,-53.6"/> <text text-anchor="start" x="452.2051" y="-31.4" font-family="Times,serif" font-size="14.00" fill="#000000">We had been stained with bitter blood</text> </g> <!-- t8&#45;&gt;t10 --> <g id="edge2" class="edge"> <title>t8&#45;&gt;t10</title> <path fill="none" stroke="#ffffff" d="M426.3158,-35.6C432.2642,-35.6 438.2125,-35.6 444.1609,-35.6"/> </g> <!-- t14 --> <g id="node5" class="node"> <title>t14</title> <polygon fill="#ffffff" stroke="#0000ff" points="943.9971,-53.6 691.4665,-53.6 691.4665,-17.6 943.9971,-17.6 943.9971,-53.6"/> <text text-anchor="start" x="699.3492" y="-31.4" font-family="Times,serif" font-size="14.00" fill="#000000">And had ran mute &#39;mid shrieks of slaugter</text> </g> <!-- t10&#45;&gt;t14 --> <g id="edge3" class="edge"> <title>t10&#45;&gt;t14</title> <path fill="none" stroke="#ffffff" d="M673.3089,-35.6C679.3266,-35.6 685.3442,-35.6 691.3618,-35.6"/> </g> <!-- t16 --> <g id="node6" class="node"> <title>t16</title> <polygon fill="#ffffff" stroke="#0000ff" points="1134.9131,-53.6 962.5505,-53.6 962.5505,-17.6 1134.9131,-17.6 1134.9131,-53.6"/> <text text-anchor="start" x="970.3913" y="-31.4" font-family="Times,serif" font-size="14.00" fill="#000000">Thro&#39; a city and a multitude</text> </g> <!-- t14&#45;&gt;t16 --> <g id="edge4" class="edge"> <title>t14&#45;&gt;t16</title> <path fill="none" stroke="#ffffff" d="M944.0599,-35.6C950.193,-35.6 956.3262,-35.6 962.4593,-35.6"/> </g> <!-- m3 --> <g id="node8" class="node"> <title>m3</title> <ellipse fill="#ffffff" stroke="#ff0000" cx="475.7318" cy="-251.6" rx="29.0356" ry="18"/> <text text-anchor="start" x="462.5172" y="-247.4" font-family="Times,serif" font-size="14.00" fill="#000000">page</text> </g> <!-- m2&#45;&gt;m3 --> <g id="edge5" class="edge"> <title>m2&#45;&gt;m3</title> <path fill="none" stroke="#a52a2a" d="M504.5331,-306.1708C498.5585,-294.8506 490.8034,-280.1568 484.8458,-268.8687"/> </g> <!-- m11 --> <g id="node13" class="node"> <title>m11</title> <ellipse fill="#ffffff" stroke="#ff0000" cx="764.7318" cy="-251.6" rx="29.0356" ry="18"/> <text text-anchor="start" x="751.5172" y="-247.4" font-family="Times,serif" font-size="14.00" fill="#000000">page</text> </g> <!-- m2&#45;&gt;m11 --> <g id="edge6" class="edge"> <title>m2&#45;&gt;m11</title> <path fill="none" stroke="#a52a2a" d="M543.0159,-315.1998C592.1569,-301.1035 690.4847,-272.898 737.9187,-259.2914"/> </g> <!-- m4 --> <g id="node9" class="node"> <title>m4</title> <ellipse fill="#ffffff" stroke="#ff0000" cx="448.7318" cy="-179.6" rx="27" ry="18"/> <text text-anchor="start" x="445.2318" y="-175.4" font-family="Times,serif" font-size="14.00" fill="#000000">p</text> </g> <!-- m3&#45;&gt;m4 --> <g id="edge7" class="edge"> <title>m3&#45;&gt;m4</title> <path fill="none" stroke="#a52a2a" d="M469.0576,-233.8022C464.8725,-222.6419 459.4997,-208.3143 455.3292,-197.193"/> </g> <!-- m5 --> <g id="node10" class="node"> <title>m5</title> <ellipse fill="#ffffff" stroke="#ff0000" cx="195.7318" cy="-107.6" rx="27" ry="18"/> <text text-anchor="start" x="185.2339" y="-103.4" font-family="Times,serif" font-size="14.00" fill="#000000">line</text> </g> <!-- m4&#45;&gt;m5 --> <g id="edge8" class="edge"> <title>m4&#45;&gt;m5</title> <path fill="none" stroke="#a52a2a" d="M423.5482,-172.4331C375.0533,-158.6322 269.2281,-128.5159 220.8135,-114.7379"/> </g> <!-- m7 --> <g id="node11" class="node"> <title>m7</title> <ellipse fill="#ffffff" stroke="#ff0000" cx="342.7318" cy="-107.6" rx="27" ry="18"/> <text text-anchor="start" x="332.2339" y="-103.4" font-family="Times,serif" font-size="14.00" fill="#000000">line</text> </g> <!-- m4&#45;&gt;m7 --> <g id="edge9" class="edge"> <title>m4&#45;&gt;m7</title> <path fill="none" stroke="#a52a2a" d="M429.7811,-166.7278C410.6062,-153.7034 381.1197,-133.6748 361.8758,-120.6035"/> </g> <!-- m9 --> <g id="node12" class="node"> <title>m9</title> <ellipse fill="#ffffff" stroke="#ff0000" cx="490.7318" cy="-107.6" rx="27" ry="18"/> <text text-anchor="start" x="480.2339" y="-103.4" font-family="Times,serif" font-size="14.00" fill="#000000">line</text> </g> <!-- m4&#45;&gt;m9 --> <g id="edge10" class="edge"> <title>m4&#45;&gt;m9</title> <path fill="none" stroke="#a52a2a" d="M458.6852,-162.537C465.3804,-151.0596 474.1697,-135.9922 480.8498,-124.5405"/> </g> <!-- m5&#45;&gt;t6 --> <g id="edge11" class="edge"> <title>m5&#45;&gt;t6</title> <path fill="none" stroke="#a52a2a" d="M177.0234,-94.3941C160.8048,-82.9457 137.1847,-66.2726 119.2363,-53.6032"/> </g> <!-- m7&#45;&gt;t8 --> <g id="edge12" class="edge"> <title>m7&#45;&gt;t8</title> <path fill="none" stroke="#a52a2a" d="M336.0576,-89.8022C331.935,-78.8085 326.6598,-64.7413 322.5167,-53.6931"/> </g> <!-- m9&#45;&gt;t10 --> <g id="edge13" class="edge"> <title>m9&#45;&gt;t10</title> <path fill="none" stroke="#a52a2a" d="M505.1529,-92.3307C515.835,-81.0202 530.4285,-65.5682 541.6877,-53.6467"/> </g> <!-- m12 --> <g id="node14" class="node"> <title>m12</title> <ellipse fill="#ffffff" stroke="#ff0000" cx="817.7318" cy="-179.6" rx="27" ry="18"/> <text text-anchor="start" x="814.2318" y="-175.4" font-family="Times,serif" font-size="14.00" fill="#000000">p</text> </g> <!-- m11&#45;&gt;m12 --> <g id="edge14" class="edge"> <title>m11&#45;&gt;m12</title> <path fill="none" stroke="#a52a2a" d="M777.0243,-234.9008C785.5866,-223.269 796.9583,-207.8206 805.506,-196.2087"/> </g> <!-- m13 --> <g id="node15" class="node"> <title>m13</title> <ellipse fill="#ffffff" stroke="#ff0000" cx="817.7318" cy="-107.6" rx="27" ry="18"/> <text text-anchor="start" x="807.2339" y="-103.4" font-family="Times,serif" font-size="14.00" fill="#000000">line</text> </g> <!-- m12&#45;&gt;m13 --> <g id="edge15" class="edge"> <title>m12&#45;&gt;m13</title> <path fill="none" stroke="#a52a2a" d="M817.7318,-161.4314C817.7318,-150.6 817.7318,-136.8876 817.7318,-126.0133"/> </g> <!-- m15 --> <g id="node16" class="node"> <title>m15</title> <ellipse fill="#ffffff" stroke="#ff0000" cx="968.7318" cy="-107.6" rx="27" ry="18"/> <text text-anchor="start" x="958.2339" y="-103.4" font-family="Times,serif" font-size="14.00" fill="#000000">line</text> </g> <!-- m12&#45;&gt;m15 --> <g id="edge16" class="edge"> <title>m12&#45;&gt;m15</title> <path fill="none" stroke="#a52a2a" d="M840.0124,-168.9762C868.5614,-155.3634 917.7668,-131.9012 946.3598,-118.2674"/> </g> <!-- m13&#45;&gt;t14 --> <g id="edge17" class="edge"> <title>m13&#45;&gt;t14</title> <path fill="none" stroke="#a52a2a" d="M817.7318,-89.4314C817.7318,-78.6 817.7318,-64.8876 817.7318,-54.0133"/> </g> <!-- m15&#45;&gt;t16 --> <g id="edge18" class="edge"> <title>m15&#45;&gt;t16</title> <path fill="none" stroke="#a52a2a" d="M984.921,-93.0297C997.5222,-81.6886 1015.0805,-65.8862 1028.5896,-53.728"/> </g> </g> </svg>